<?xml version="1.0" encoding="UTF-8"?> <!-- Generator: Adobe Illustrator 17.0.0, SVG Export Plug-In . SVG Version: 6.00 Build 0) --> <svg xmlns="http://www.w3.org/2000/svg" xmlns:xlink="http://www.w3.org/1999/xlink" id="Layer_1" x="0px" y="0px" width="245px" height="245px" viewBox="0 0 245 245" xml:space="preserve"> <g> <g> <g> <path fill="none" stroke="#617283" stroke-width="4" d="M128.18,175.71c2.646-1.79,4.386-4.819,4.386-8.254 c0-5.498-4.457-9.957-9.957-9.957c-5.498,0-9.956,4.458-9.956,9.957c0,3.435,1.74,6.464,4.386,8.254h-15.881 c-1.647,0-3.079,1.133-3.463,2.739l-10.097,42.237c-0.464,1.941,0.746,3.891,2.689,4.319c5.873,1.294,18.395,3.631,32.222,3.631 c13.827,0,26.349-2.337,32.222-3.631c1.944-0.428,3.154-2.378,2.69-4.319l-10.097-42.237c-0.384-1.606-1.816-2.739-3.464-2.739 H128.18z"></path> </g> </g> <g> <g> <path fill="none" stroke="#617283" stroke-width="4" d="M122.5,171.5c2.32,0,4.2-1.88,4.2-4.2c0-2.32-1.88-4.2-4.2-4.2 c-2.32,0-4.2,1.88-4.2,4.2C118.3,169.62,120.18,171.5,122.5,171.5z"></path> </g> </g> <g> <g> <g> <path fill="#617283" d="M111.946,196.846c0-1.003-0.766-1.583-2.112-1.583c-1.505,0-3.405,0.897-5.121,2.349l-1.821-3.563 c2.375-1.742,4.962-2.798,7.655-2.798c3.749,0,6.467,1.953,6.467,4.884c0,2.006-1.531,4.091-3.59,6.177l-3.801,3.801h7.919 v3.881h-14.096l-0.026-3.194l6.731-6.916C111.181,198.826,111.946,197.638,111.946,196.846z"></path> <path fill="#617283" d="M128.235,196.846c0-1.003-0.766-1.583-2.112-1.583c-1.505,0-3.405,0.897-5.121,2.349l-1.821-3.563 c2.375-1.742,4.963-2.798,7.655-2.798c3.749,0,6.468,1.953,6.468,4.884c0,2.006-1.531,4.091-3.59,6.177l-3.802,3.801h7.919 v3.881h-14.096l-0.026-3.194l6.732-6.916C127.47,198.826,128.235,197.638,128.235,196.846z"></path> <path fill="#617283" d="M145.896,209.253c-1.029,0.607-2.455,0.95-3.854,0.95c-2.771,0.026-4.777-1.61-4.777-4.566v-6.124h-1.98 v-3.115h1.98v-3.96h4.672v3.96h3.696v3.115h-3.696v5.385c0,1.056,0.476,1.531,1.294,1.505c0.475,0,1.082-0.185,1.769-0.476 L145.896,209.253z"></path> </g> </g> </g> <g> <g> <path fill="#E7E9F0" d="M79.8,18.2c13.404,0,25.674,8.763,40.022,11.059c14.349,2.296,32.361-1.875,45.765-1.301v103.83h-30.362 H79.8V18.2z"></path> </g> </g> <g> <g> <path fill="none" stroke="#000000" stroke-width="0.5" d="M78.4,76.3h88.125"></path> </g> </g> <g> <g> <g> <path d="M84.561,72.901l0.335,0.334c0.04,0.041,0.067,0.094,0.067,0.154c0,0.054-0.027,0.114-0.067,0.154l-2.633,2.632 l2.633,2.632c0.04,0.041,0.067,0.101,0.067,0.154s-0.027,0.114-0.067,0.154l-0.335,0.334c-0.04,0.041-0.101,0.067-0.153,0.067 c-0.054,0-0.114-0.027-0.154-0.067l-3.122-3.121c-0.04-0.041-0.066-0.101-0.066-0.154s0.026-0.114,0.066-0.154l3.122-3.121 c0.04-0.041,0.101-0.067,0.154-0.067C84.46,72.833,84.521,72.86,84.561,72.901z"></path> </g> </g> </g> <g> <g> <g> <path d="M118.302,55.643v8.407h-1.415v-7.136h-1.811v-1.271H118.302z"></path> <path d="M132.89,60.081v3.97h-1.38v-3.586c0-0.972-0.575-1.56-1.511-1.56c-1.092,0.036-1.751,0.876-1.751,1.991v3.154h-1.38 v-3.586c0-0.972-0.563-1.56-1.499-1.56c-1.104,0.036-1.774,0.876-1.774,1.991v3.154h-1.367v-6.381h1.367v1.235 c0.443-0.899,1.259-1.283,2.314-1.283c1.14,0,1.919,0.563,2.219,1.535c0.408-1.067,1.26-1.535,2.423-1.535 C132.014,57.622,132.89,58.557,132.89,60.081z"></path> </g> </g> </g> <g> <g> <path fill="none" stroke="#617283" stroke-width="4" d="M165.766,26.947v104.947H79.1V18.2"></path> </g> </g> <g> <g> <path fill="none" stroke="#617283" stroke-width="4" d="M122.15,133v32.9"></path> </g> </g> <g> <g> <path fill="#617283" d="M116.2,132.3h12.6v2.8h-12.6V132.3z"></path> </g> </g> <g> <g> <g> <path d="M160.844,72.833c0.054,0,0.114,0.027,0.154,0.067l3.122,3.121c0.04,0.041,0.066,0.101,0.066,0.154 s-0.026,0.114-0.066,0.154l-3.122,3.121c-0.04,0.041-0.101,0.067-0.154,0.067c-0.053,0-0.113-0.027-0.153-0.067l-0.335-0.334 c-0.04-0.041-0.067-0.101-0.067-0.154s0.027-0.114,0.067-0.154l2.633-2.632l-2.633-2.632c-0.04-0.041-0.067-0.101-0.067-0.154 c0-0.06,0.027-0.114,0.067-0.154l0.335-0.334C160.73,72.86,160.791,72.833,160.844,72.833z"></path> </g> </g> </g> </g> </svg> 