<?xml version="1.0" encoding="UTF-8"?> <!-- Generator: Adobe Illustrator 17.0.0, SVG Export Plug-In . SVG Version: 6.00 Build 0) --> <svg xmlns="http://www.w3.org/2000/svg" xmlns:xlink="http://www.w3.org/1999/xlink" id="Layer_1" x="0px" y="0px" width="225.076px" height="91.123px" viewBox="9.822 76.238 225.076 91.123" xml:space="preserve"> <g> <g> <g> <path fill="#707881" d="M21.611,92.001v69.119c30.464-9.208,64.37-14.41,100.334-14.41c36.15,0,70.074,5.259,100.538,14.556 V92.119c-31.416-7.915-65.782-12.067-100.537-12.067C87.41,80.052,53.027,84.176,21.611,92.001"></path> </g> </g> <g> <g> <path fill="none" stroke="#E7E9F0" stroke-width="4" d="M234.22,95.554c-35.224-9.894-72.893-15.099-111.86-15.099 c-38.967,0-77.588,5.24-111.86,15.134"></path> </g> </g> <g> <g> <path fill="none" stroke="#E7E9F0" stroke-width="4" d="M234.22,165.48c-32.368-11.666-71.02-18.367-111.86-18.367 c-40.839,0-79.492,6.701-111.86,18.367"></path> </g> </g> <g> <g> <path fill="none" stroke="#FFFFFF" stroke-width="0.68" d="M122.396,79.822v67.7"></path> </g> </g> <g> <g> <g> <path fill="#FFFFFF" d="M136.49,111.952c2.596,0,4.262,1.47,4.262,3.461c0,2.335-1.731,3.854-4.408,3.854 c-1.404,0-3.054-0.522-4.229-1.307l0.784-1.567c0.963,0.768,2.155,1.209,3.232,1.209c1.601,0,2.563-0.784,2.563-2.058 c0-1.176-0.963-1.894-2.53-1.894c-0.735,0-2.335,0.064-3.151,0.163v-6.058h7.249v1.73h-5.47v2.482 C135.299,111.952,136.05,111.952,136.49,111.952z"></path> <path fill="#FFFFFF" d="M150.951,113.471c0,3.723-1.534,5.779-4.294,5.779c-2.775,0-4.31-2.057-4.31-5.779 c0-3.706,1.534-5.764,4.31-5.764C149.417,107.707,150.951,109.765,150.951,113.471z M144.258,113.471 c0,2.906,0.8,4.277,2.399,4.277c1.584,0,2.384-1.371,2.384-4.277s-0.8-4.262-2.384-4.262 C145.058,109.209,144.258,110.564,144.258,113.471z"></path> </g> </g> </g> <g> <g> <g> <path fill="#FFFFFF" d="M125.646,83.282l-0.335,0.335c-0.04,0.04-0.094,0.067-0.154,0.067c-0.054,0-0.113-0.027-0.154-0.067 l-2.632-2.633l-2.632,2.633c-0.041,0.04-0.101,0.067-0.154,0.067s-0.114-0.027-0.154-0.067l-0.334-0.335 c-0.041-0.04-0.067-0.101-0.067-0.153c0-0.054,0.027-0.114,0.067-0.154l3.121-3.122c0.04-0.04,0.101-0.066,0.154-0.066 s0.113,0.026,0.154,0.066l3.121,3.122c0.04,0.04,0.067,0.101,0.067,0.154C125.714,83.182,125.687,83.242,125.646,83.282z"></path> </g> </g> </g> <g> <g> <g> <path fill="#FFFFFF" d="M125.584,144.769l-3.121,3.122c-0.041,0.04-0.101,0.066-0.154,0.066s-0.114-0.026-0.154-0.066 l-3.121-3.122c-0.041-0.04-0.067-0.101-0.067-0.154c0-0.053,0.027-0.113,0.067-0.153l0.334-0.335 c0.041-0.04,0.094-0.067,0.154-0.067c0.054,0,0.114,0.027,0.154,0.067l2.632,2.633l2.632-2.633 c0.041-0.04,0.101-0.067,0.154-0.067s0.114,0.027,0.154,0.067l0.335,0.335c0.04,0.04,0.067,0.101,0.067,0.153 C125.651,144.668,125.624,144.729,125.584,144.769z"></path> </g> </g> </g> </g> </svg> 