<?xml version="1.0" encoding="UTF-8"?> <!-- Generator: Adobe Illustrator 17.0.0, SVG Export Plug-In . SVG Version: 6.00 Build 0) --> <svg xmlns="http://www.w3.org/2000/svg" xmlns:xlink="http://www.w3.org/1999/xlink" id="Layer_1" x="0px" y="0px" width="62px" height="62px" viewBox="-0.5 -11.5 62 62" xml:space="preserve"> <title>icon-transport</title> <desc>Created with Sketch.</desc> <g id="TILEA---Nafukovacie-haly"> <g id="TILEA-AIRDOMES-NAHLAD3" transform="translate(-972.000000, -5702.000000)"> <g id="icon-transport" transform="translate(972.000000, 5690.000000)"> <rect id="Rectangle-Copy-3" x="-0.5" y="0.5" fill="none" width="62" height="62"></rect> <path id="Combined-Shape" fill="#C6D2DC" d="M9.5,25L9.5,25L9.5,25c0-0.828-0.672-1.5-1.5-1.5H6.5l0,0c-1.105,0-2-0.895-2-2v-1 l0,0c0-1.105,0.895-2,2-2h8v21h-9l0,0c-1.105,0-2-0.895-2-2v-1l0,0c0-1.105,0.895-2,2-2H8l0,0c0.828,0,1.5-0.672,1.5-1.5l0,0l0,0 c0-0.828-0.672-1.5-1.5-1.5H1.5l0,0c-1.105,0-2-0.895-2-2v-1l0,0c0-1.105,0.895-2,2-2H8l0,0C8.828,26.5,9.5,25.828,9.5,25z"></path> <path id="Combined-Shape_1_" fill="#FFFFFF" stroke="#314663" stroke-width="3" d="M15.5,14.5h26.439l0,0c1.105,0,2,0.895,2,2 v10.75l0,0c0,1.105,0.895,2,2,2h6.984H56.5l0,0c1.105,0,2,0.895,2,2V41.5l0,0c0,1.105-0.895,2-2,2h-41l0,0c-1.105,0-2-0.895-2-2 v-25l0,0C13.5,15.395,14.395,14.5,15.5,14.5z"></path> <circle id="Oval-3" fill="#FFFFFF" stroke="#314663" stroke-width="3" cx="23.5" cy="44.5" r="5"></circle> <circle id="Oval-3-Copy" fill="#FFFFFF" stroke="#314663" stroke-width="3" cx="48.5" cy="44.5" r="5"></circle> <polyline id="Path-3" fill="none" stroke="#314663" stroke-width="3" stroke-linecap="round" stroke-linejoin="round" points=" 44.5,18.5 50.41,18.5 58.5,30.5 "></polyline> </g> </g> </g> </svg> 