<?xml version="1.0" encoding="UTF-8"?> <!-- Generator: Adobe Illustrator 17.0.0, SVG Export Plug-In . SVG Version: 6.00 Build 0) --> <svg xmlns="http://www.w3.org/2000/svg" xmlns:xlink="http://www.w3.org/1999/xlink" id="Layer_1" x="0px" y="0px" width="62px" height="62px" viewBox="-5 -7 62 62" xml:space="preserve"> <title>icon-anchoring</title> <desc>Created with Sketch.</desc> <g id="TILEA---Nafukovacie-haly"> <g id="TILEA-AIRDOMES-NAHLAD3" transform="translate(-548.000000, -5974.000000)"> <g id="icon-anchoring" transform="translate(543.000000, 5968.000000)"> <rect id="Rectangle-6" y="-1" fill="none" width="62" height="62"></rect> <path id="Path-4-Copy" fill="none" stroke="#2C4666" stroke-width="3" stroke-linecap="round" stroke-linejoin="round" d=" M6.997,38.141L22.83,25.944l0,0c4.573-3.523,10.922-3.608,15.588-0.209l17.03,12.406"></path> <ellipse id="Oval-4-Copy-3" fill="none" stroke="#2C4666" stroke-width="3" stroke-linecap="round" stroke-linejoin="round" cx="31" cy="29.5" rx="9" ry="5.5"></ellipse> <path id="Oval-4-Copy-5" fill="none" stroke="#2C4666" stroke-width="3" stroke-linecap="round" stroke-linejoin="round" d=" M6.601,50.835C15.261,43.895,20.215,39.951,21.463,39c1.314,2.042,5.57,3.488,9.379,3.488c3.783,0,8.021-1.426,9.352-3.447 c1.272,0.993,6.363,4.924,15.273,11.794"></path> <rect id="Rectangle-6-Copy" x="27" y="5" fill="#C6D2DC" width="8" height="14"></rect> <polygon id="Triangle-Copy" fill="#C4D2DD" points="31,29 22,18 40,18 "></polygon> </g> </g> </g> </svg> 