<?xml version="1.0" encoding="UTF-8"?> <!-- Generator: Adobe Illustrator 17.0.0, SVG Export Plug-In . SVG Version: 6.00 Build 0) --> <svg xmlns="http://www.w3.org/2000/svg" xmlns:xlink="http://www.w3.org/1999/xlink" id="Layer_1" x="0px" y="0px" width="220px" height="220px" viewBox="0 0 220 220" xml:space="preserve"> <g> <g> <path fill="#6E7882" d="M110.049,115.047c-2.951,0-5.343-2.392-5.343-5.343c0-2.951,2.392-5.343,5.343-5.343 c2.951,0,5.343,2.392,5.343,5.343C115.392,112.654,112.999,115.047,110.049,115.047 M165.452,78.335 c-0.434-2.49-3.257-3.725-5.365-2.341l-40.472,26.539c3.024-7.806,4.919-19.111-0.094-32.593 c-7.469-20.082-30.267-18.586-40.534-16.784c-2.481,0.435-3.712,3.267-2.334,5.383l26.415,40.55 c-7.798-3.208-19.37-5.41-33.254-0.212c-20.016,7.494-18.524,30.369-16.728,40.668c0.434,2.49,3.257,3.725,5.365,2.341 l41.071-26.933c-3.113,7.818-5.16,19.276-0.061,32.986c7.469,20.083,30.268,18.586,40.534,16.784 c2.482-0.436,3.712-3.268,2.334-5.383l-26.26-40.311c7.786,3.073,19.119,5.04,32.654-0.027 C168.74,111.51,167.248,88.635,165.452,78.335"></path> </g> </g> <g> <g> <path fill="none" stroke="#FFFFFF" stroke-width="4" d="M110.049,115.047c-2.951,0-5.343-2.392-5.343-5.343 c0-2.951,2.392-5.343,5.343-5.343c2.951,0,5.343,2.392,5.343,5.343C115.392,112.654,112.999,115.047,110.049,115.047 M165.452,78.335c-0.434-2.49-3.257-3.725-5.365-2.341l-40.472,26.539c3.024-7.806,4.919-19.111-0.094-32.593 c-7.469-20.082-30.267-18.586-40.534-16.784c-2.481,0.435-3.712,3.267-2.334,5.383l26.415,40.55 c-7.798-3.208-19.37-5.41-33.254-0.212c-20.016,7.494-18.524,30.369-16.728,40.668c0.434,2.49,3.257,3.725,5.365,2.341 l41.071-26.933c-3.113,7.818-5.16,19.276-0.061,32.986c7.469,20.083,30.268,18.586,40.534,16.784 c2.482-0.436,3.712-3.268,2.334-5.383l-26.26-40.311c7.786,3.073,19.119,5.04,32.654-0.027 C168.74,111.51,167.248,88.635,165.452,78.335"></path> </g> </g> <g> <g> <path fill="none" stroke="#6E7882" stroke-width="4" d="M200.634,119.434c-4.417,46.035-43.106,82.03-90.181,82.03 c-11.88,0-23.226-2.292-33.621-6.46"></path> </g> </g> <g> <g> <path fill="none" stroke="#6E7882" stroke-width="4" d="M71.71,28.667c11.569-5.361,24.458-8.352,38.045-8.352 c46.558,0,84.914,35.122,90.026,80.321"></path> </g> </g> <g> <g> <path fill="none" stroke="#6E7882" stroke-width="4" d="M58.049,185.228c-23.225-16.353-38.421-43.522-38.421-74.273 c0-29.274,13.771-55.302,35.13-71.842"></path> </g> </g> <g> <g> <path fill="#6E7882" d="M186.589,132.108l12.812-14.494c1.147-1.297,3.308-0.695,3.595,1.001l3.197,18.954 c0.249,1.474-1.098,2.75-2.491,2.361l-16.247-4.526C186.06,135.017,185.593,133.235,186.589,132.108"></path> </g> </g> <g> <g> <path fill="#6E7882" d="M88.579,33.347l-18.434-3.47c-1.649-0.311-2.206-2.477-0.926-3.601l14.31-12.565 c1.113-0.977,2.843-0.485,3.202,0.912l4.185,16.274C91.275,32.293,90.012,33.617,88.579,33.347"></path> </g> </g> <g> <g> <path fill="#6E7882" d="M53.89,168.014l6.28,18.383c0.563,1.645-1.001,3.216-2.598,2.612l-17.853-6.747 c-1.389-0.525-1.836-2.333-0.829-3.345l11.746-11.808C51.643,166.095,53.402,166.585,53.89,168.014"></path> </g> </g> </svg> 