<?xml version="1.0" encoding="UTF-8"?> <!-- Generator: Adobe Illustrator 17.0.0, SVG Export Plug-In . SVG Version: 6.00 Build 0) --> <svg xmlns="http://www.w3.org/2000/svg" xmlns:xlink="http://www.w3.org/1999/xlink" id="Layer_1" x="0px" y="0px" width="536px" height="106px" viewBox="0 0 536 106" xml:space="preserve"> <g> <g> <g> <g> <path fill="#617283" d="M360.626,103.047l-1.3-2.472h-0.051h-1.682v2.472h-2.332v-8.932h4.014c2.37,0,3.721,1.146,3.721,3.135 c0,1.351-0.561,2.344-1.593,2.879l1.86,2.918H360.626z M357.594,98.715h1.694c0.943,0,1.491-0.484,1.491-1.389 c0-0.879-0.548-1.351-1.491-1.351h-1.694V98.715z"></path> <path fill="#617283" d="M371.531,94.115v1.86h-4.714v1.669h4.256v1.86h-4.256v1.682h4.842v1.86h-7.174v-8.932H371.531z"></path> <path fill="#617283" d="M378.997,98.485h2.014v3.517c-0.956,0.663-2.473,1.146-3.721,1.146c-2.727,0-4.778-1.962-4.778-4.561 c0-2.6,2.103-4.536,4.931-4.536c1.338,0,2.753,0.51,3.67,1.325l-1.325,1.631c-0.637-0.599-1.542-0.981-2.357-0.981 c-1.439,0-2.522,1.108-2.522,2.562c0,1.465,1.096,2.573,2.549,2.573c0.445,0,1.006-0.153,1.541-0.42V98.485z"></path> <path fill="#617283" d="M386.552,101.161c1.032,0,1.746-0.701,1.746-1.86v-5.186h2.331v5.186c0,2.357-1.58,3.848-4.09,3.848 c-2.522,0-4.141-1.49-4.141-3.848v-5.186h2.331v5.186C384.729,100.447,385.494,101.161,386.552,101.161z"></path> </g> </g> </g> <g> <g> <g> <path fill="#617283" d="M395.368,94.115v6.944h3.784v1.987h-6.116v-8.932H395.368z"></path> </g> </g> </g> <g> <g> <g> <path fill="#617283" d="M406.682,101.467h-3.86l-0.625,1.58h-2.395l3.835-8.932h2.395l3.746,8.932h-2.484L406.682,101.467z M405.993,99.684l-1.223-3.186l-1.249,3.186H405.993z"></path> <path fill="#617283" d="M415.943,103.047l-1.3-2.472h-0.051h-1.682v2.472h-2.332v-8.932h4.014c2.37,0,3.721,1.146,3.721,3.135 c0,1.351-0.561,2.344-1.593,2.879l1.86,2.918H415.943z M412.911,98.715h1.694c0.943,0,1.491-0.484,1.491-1.389 c0-0.879-0.548-1.351-1.491-1.351h-1.694V98.715z"></path> </g> </g> </g> <g> <g> <g> <path fill="#617283" d="M432.06,98.575c0,2.662-1.949,4.472-4.842,4.472h-3.759v-8.932h3.849 C430.136,94.115,432.06,95.925,432.06,98.575z M429.677,98.601c0-1.542-1.006-2.587-2.421-2.587h-1.465v5.147h1.58 C428.722,101.161,429.677,100.129,429.677,98.601z"></path> </g> </g> </g> <g> <g> <g> <path fill="#617283" d="M443.067,98.575c0,2.611-2.064,4.573-4.829,4.573s-4.829-1.962-4.829-4.573 c0-2.6,2.064-4.523,4.829-4.523S443.067,95.988,443.067,98.575z M435.805,98.588c0,1.452,1.134,2.573,2.459,2.573 c1.338,0,2.408-1.121,2.408-2.573c0-1.453-1.07-2.549-2.408-2.549S435.805,97.135,435.805,98.588z"></path> <path fill="#617283" d="M446.773,94.115l2.37,5.211l2.37-5.211h2.548v8.932h-2.063l-0.014-5.657l-2.076,4.766h-1.529 l-2.076-4.766v5.657h-2.077v-8.932H446.773z"></path> <path fill="#617283" d="M462.839,94.115v1.86h-4.714v1.669h4.256v1.86h-4.256v1.682h4.842v1.86h-7.174v-8.932H462.839z"></path> </g> </g> </g> <g> <g> <path fill="#E6E8E9" d="M533.177,76.94H285.803c-1.542,0-2.803-1.886-2.803-4.191v-0.717c0-2.305,1.261-4.191,2.803-4.191 h247.374c1.542,0,2.803,1.886,2.803,4.191v0.717C535.98,75.054,534.719,76.94,533.177,76.94"></path> </g> </g> <g> <g> <path fill="#FFFFFF" d="M414.926,0.503c2.029,0.069,6.044,1.14,6.044,1.14s3.241-0.54,4.848-0.366 c2.086,0.226,6.206,1.62,6.206,1.62s3.338-0.271,4.99,0.04c2.04,0.384,6.064,2.092,6.064,2.092s3.471,0.036,5.182,0.506 c1.98,0.543,5.875,2.562,5.875,2.562s3.635,0.402,5.422,1.06c1.902,0.702,5.634,3.032,5.634,3.032s3.452,0.681,5.143,1.475 c2.005,0.942,5.914,3.772,5.914,3.772s3.507,1.109,5.216,2.121c1.988,1.179,5.84,4.489,5.84,4.489s3.689,1.726,5.47,3.058 c1.914,1.431,5.587,5.25,5.587,5.25s3.583,2.304,5.292,3.928c1.999,1.902,5.764,6.696,5.764,6.696s3.955,3.702,5.78,6.058 c1.89,2.439,5.33,8.33,5.33,8.33s2.163,2.624,3.165,4.393c1.132,2,2.196,3.882,3.188,6.079H293.01 c0.993-2.197,2.056-4.079,3.188-6.079c1.002-1.769,3.165-4.404,3.165-4.404s3.44-5.886,5.33-8.325 c1.825-2.356,5.78-6.055,5.78-6.055s3.765-4.793,5.765-6.694c1.709-1.625,5.292-3.927,5.292-3.927s3.673-3.819,5.586-5.251 c1.781-1.333,5.471-3.057,5.471-3.057s3.852-3.31,5.84-4.489c1.708-1.013,5.216-2.121,5.216-2.121s3.909-2.83,5.913-3.772 c1.692-0.794,5.143-1.475,5.143-1.475s3.732-2.33,5.634-3.032c1.787-0.658,5.422-1.06,5.422-1.06s3.895-2.019,5.875-2.562 c1.711-0.47,5.181-0.506,5.181-0.506s4.024-1.707,6.064-2.092c1.652-0.311,4.99-0.04,4.99-0.04s4.121-1.394,6.207-1.62 c1.608-0.175,4.85,0.366,4.85,0.366s4.017-1.071,6.045-1.14c1.683-0.057,4.973,0.725,4.973,0.725S413.243,0.446,414.926,0.503z"></path> </g> </g> <g> <g> <path fill="none" stroke="#617283" stroke-width="1.82" d="M414.926,0.503c2.029,0.069,6.044,1.14,6.044,1.14 s3.241-0.54,4.848-0.366c2.086,0.226,6.206,1.62,6.206,1.62s3.338-0.271,4.99,0.04c2.04,0.384,6.064,2.092,6.064,2.092 s3.471,0.036,5.182,0.506c1.98,0.543,5.875,2.562,5.875,2.562s3.635,0.402,5.422,1.06c1.902,0.702,5.634,3.032,5.634,3.032 s3.452,0.681,5.143,1.475c2.005,0.942,5.914,3.772,5.914,3.772s3.507,1.109,5.216,2.121c1.988,1.179,5.84,4.489,5.84,4.489 s3.689,1.726,5.47,3.058c1.914,1.431,5.587,5.25,5.587,5.25s3.583,2.304,5.292,3.928c1.999,1.902,5.764,6.696,5.764,6.696 s3.955,3.702,5.78,6.058c1.89,2.439,5.33,8.33,5.33,8.33s2.163,2.624,3.165,4.393c1.132,2,2.196,3.882,3.188,6.079H293.01 c0.993-2.197,2.056-4.079,3.188-6.079c1.002-1.769,3.165-4.404,3.165-4.404s3.44-5.886,5.33-8.325 c1.825-2.356,5.78-6.055,5.78-6.055s3.765-4.793,5.765-6.694c1.709-1.625,5.292-3.927,5.292-3.927s3.673-3.819,5.586-5.251 c1.781-1.333,5.471-3.057,5.471-3.057s3.852-3.31,5.84-4.489c1.708-1.013,5.216-2.121,5.216-2.121s3.909-2.83,5.913-3.772 c1.692-0.794,5.143-1.475,5.143-1.475s3.732-2.33,5.634-3.032c1.787-0.658,5.422-1.06,5.422-1.06s3.895-2.019,5.875-2.562 c1.711-0.47,5.181-0.506,5.181-0.506s4.024-1.707,6.064-2.092c1.652-0.311,4.99-0.04,4.99-0.04s4.121-1.394,6.207-1.62 c1.608-0.175,4.85,0.366,4.85,0.366s4.017-1.071,6.045-1.14c1.683-0.057,4.973,0.725,4.973,0.725S413.243,0.446,414.926,0.503z"></path> </g> </g> <g> <g> <path fill="none" stroke="#CCCCCC" stroke-width="0.91" d="M520.51,67.84V56.92"></path> </g> </g> <g> <g> <path fill="none" stroke="#CCCCCC" stroke-width="0.91" d="M299.38,67.84V56.92"></path> </g> </g> <g> <g> <path fill="none" stroke="#CCCCCC" stroke-width="0.91" d="M310.3,68.75V43.27"></path> </g> </g> <g> <g> <path fill="none" stroke="#CCCCCC" stroke-width="0.91" d="M321.22,67.84v-36.4"></path> </g> </g> <g> <g> <path fill="none" stroke="#CCCCCC" stroke-width="0.91" d="M332.14,67.84V24.16"></path> </g> </g> <g> <g> <path fill="none" stroke="#CCCCCC" stroke-width="0.91" d="M343.06,67.84V16.88"></path> </g> </g> <g> <g> <path fill="none" stroke="#CCCCCC" stroke-width="0.91" d="M353.98,67.84V11.42"></path> </g> </g> <g> <g> <path fill="none" stroke="#CCCCCC" stroke-width="0.91" d="M364.9,67.84V7.78"></path> </g> </g> <g> <g> <path fill="none" stroke="#CCCCCC" stroke-width="0.91" d="M376.73,67.84V4.14"></path> </g> </g> <g> <g> <path fill="none" stroke="#CCCCCC" stroke-width="0.91" d="M387.65,67.84V2.95"></path> </g> </g> <g> <g> <path fill="none" stroke="#CCCCCC" stroke-width="0.91" d="M398.57,67.84V1.55"></path> </g> </g> <g> <g> <path fill="none" stroke="#CCCCCC" stroke-width="0.91" d="M409.49,0.5v67.34"></path> </g> </g> <g> <g> <path fill="none" stroke="#CCCCCC" stroke-width="0.91" d="M420.41,67.84V1.55"></path> </g> </g> <g> <g> <path fill="none" stroke="#CCCCCC" stroke-width="0.91" d="M431.33,67.84V2.95"></path> </g> </g> <g> <g> <path fill="none" stroke="#CCCCCC" stroke-width="0.91" d="M442.25,67.84V4.14"></path> </g> </g> <g> <g> <path fill="none" stroke="#CCCCCC" stroke-width="0.91" d="M454.08,68.75V7.78"></path> </g> </g> <g> <g> <path fill="none" stroke="#CCCCCC" stroke-width="0.91" d="M465,67.84V11.42"></path> </g> </g> <g> <g> <path fill="none" stroke="#CCCCCC" stroke-width="0.91" d="M475.92,67.84V16.88"></path> </g> </g> <g> <g> <path fill="none" stroke="#CCCCCC" stroke-width="0.91" d="M486.84,68.75v-45.5"></path> </g> </g> <g> <g> <path fill="none" stroke="#CCCCCC" stroke-width="0.91" d="M497.76,67.84v-36.4"></path> </g> </g> <g> <g> <path fill="none" stroke="#CCCCCC" stroke-width="0.91" d="M508.68,68.05V43.27"></path> </g> </g> <g> <g> <path fill="none" stroke="#617283" stroke-width="2.8" d="M414.716,0.503c2.029,0.069,6.044,1.14,6.044,1.14 s3.241-0.54,4.848-0.366c2.086,0.226,6.206,1.62,6.206,1.62s3.338-0.271,4.99,0.04c2.04,0.384,6.064,2.092,6.064,2.092 s3.471,0.036,5.182,0.506c1.98,0.543,5.875,2.562,5.875,2.562s3.635,0.402,5.422,1.06c1.902,0.702,5.634,3.032,5.634,3.032 s3.452,0.681,5.143,1.475c2.005,0.942,5.914,3.772,5.914,3.772s3.507,1.109,5.216,2.121c1.988,1.179,5.84,4.489,5.84,4.489 s3.689,1.726,5.47,3.058c1.914,1.431,5.587,5.25,5.587,5.25s3.583,2.304,5.292,3.928c1.999,1.902,5.764,6.696,5.764,6.696 s3.955,3.702,5.78,6.058c1.89,2.439,5.33,8.33,5.33,8.33s2.163,2.624,3.165,4.393c1.132,2,2.196,3.882,3.188,6.079H292.8 c0.993-2.197,2.056-4.079,3.188-6.079c1.002-1.769,3.165-4.404,3.165-4.404s3.44-5.886,5.33-8.325 c1.825-2.356,5.78-6.055,5.78-6.055s3.765-4.793,5.765-6.694c1.709-1.625,5.292-3.927,5.292-3.927s3.673-3.819,5.586-5.251 c1.781-1.333,5.471-3.057,5.471-3.057s3.852-3.31,5.84-4.489c1.708-1.013,5.216-2.121,5.216-2.121s3.909-2.83,5.913-3.772 c1.692-0.794,5.143-1.475,5.143-1.475s3.732-2.33,5.634-3.032c1.787-0.658,5.422-1.06,5.422-1.06s3.895-2.019,5.875-2.562 c1.711-0.47,5.181-0.506,5.181-0.506s4.024-1.707,6.064-2.092c1.652-0.311,4.99-0.04,4.99-0.04s4.121-1.394,6.207-1.62 c1.608-0.175,4.85,0.366,4.85,0.366s4.017-1.071,6.045-1.14c1.683-0.057,4.973,0.725,4.973,0.725S413.033,0.446,414.716,0.503z"></path> </g> </g> <g> <g> <g> <path fill="#617283" d="M92.411,94.195v1.924h-2.676v7.008h-2.332v-7.008h-2.65v-1.924H92.411z"></path> <path fill="#617283" d="M95.685,94.195v8.932h-2.332v-8.932H95.685z"></path> <path fill="#617283" d="M99.749,94.195v6.944h3.784v1.987h-6.116v-8.932H99.749z"></path> <path fill="#617283" d="M111.635,94.195v1.86h-4.714v1.669h4.255v1.86h-4.255v1.682h4.841v1.86h-7.173v-8.932H111.635z"></path> <path fill="#617283" d="M119.139,101.547h-3.86l-0.625,1.58h-2.395l3.835-8.932h2.395l3.746,8.932h-2.484L119.139,101.547z M118.451,99.764l-1.223-3.186l-1.249,3.186H118.451z"></path> </g> </g> </g> <g> <g> <g> <path fill="#617283" d="M135.791,98.655c0,2.662-1.949,4.472-4.842,4.472h-3.759v-8.932h3.849 C133.867,94.195,135.791,96.005,135.791,98.655z M133.408,98.681c0-1.542-1.006-2.587-2.421-2.587h-1.465v5.147h1.58 C132.453,101.241,133.408,100.209,133.408,98.681z"></path> <path fill="#617283" d="M145.881,98.655c0,2.611-2.063,4.573-4.828,4.573c-2.766,0-4.829-1.962-4.829-4.573 c0-2.6,2.063-4.523,4.829-4.523C143.817,94.132,145.881,96.068,145.881,98.655z M138.619,98.668 c0,1.452,1.134,2.573,2.459,2.573c1.338,0,2.408-1.121,2.408-2.573c0-1.453-1.07-2.549-2.408-2.549 S138.619,97.215,138.619,98.668z"></path> <path fill="#617283" d="M149.588,94.195l2.37,5.211l2.369-5.211h2.549v8.932h-2.064l-0.013-5.657l-2.077,4.766h-1.528 l-2.077-4.766v5.657h-2.077v-8.932H149.588z"></path> <path fill="#617283" d="M165.653,94.195v1.86h-4.714v1.669h4.255v1.86h-4.255v1.682h4.841v1.86h-7.173v-8.932H165.653z"></path> </g> </g> </g> <g> <g> <path fill="#E6E8E9" d="M250.177,77.02H2.803C1.261,77.02,0,75.134,0,72.828v-0.717c0-2.305,1.261-4.191,2.803-4.191h247.374 c1.542,0,2.803,1.886,2.803,4.191v0.717C252.98,75.134,251.719,77.02,250.177,77.02"></path> </g> </g> <g> <g> <path fill="#FFFFFF" d="M9.1,69.74c0.249-2.372,0.784-5.379,1.268-7.837c0.56-2.849,1.405-5.575,2.521-8.1l2.814-6.363 l3.696-9.388c1.219-3.093,2.809-5.883,4.706-8.254l2.67-3.338l2.211-3.554c2.19-3.519,4.924-6.333,8.005-8.239l0.857-0.531 l1.625-1.722c2.578-2.729,5.553-4.676,8.726-5.709L48.92,6.47l1.546-0.922c2.637-1.571,5.466-2.451,8.34-2.592l1.186-0.058 l0.084-0.032c3.581-1.371,7.352-1.531,10.988-0.465l0.73-0.214c3.168-0.928,6.444-0.928,9.612,0l0.73,0.214l0.731-0.214 c3.168-0.928,6.444-0.928,9.612,0l0.73,0.214l0.73-0.214c3.169-0.928,6.444-0.928,9.613,0l0.73,0.214l0.729-0.214 c3.169-0.928,6.445-0.928,9.612,0l0.73,0.214l0.73-0.214c3.168-0.928,6.445-0.928,9.612,0l0.731,0.214l0.064-0.022l0.794-0.192 c3.169-0.928,6.444-0.928,9.613,0l0.73,0.214l0.73-0.214c3.167-0.928,6.444-0.928,9.612,0l0.73,0.214l0.729-0.214 c3.168-0.928,6.445-0.928,9.613,0l0.73,0.214l0.73-0.214c3.168-0.928,6.444-0.928,9.612,0l0.73,0.214l0.731-0.214 c3.168-0.928,6.444-0.928,9.612,0l0.73,0.214c3.636-1.066,7.407-0.906,10.988,0.465l0.084,0.032l1.186,0.058 c2.875,0.141,5.704,1.021,8.339,2.592l1.547,0.922l0.721,0.235c3.174,1.033,6.149,2.98,8.726,5.709l1.626,1.722l0.857,0.531 c3.081,1.905,5.815,4.719,8.004,8.239l2.211,3.554l2.67,3.338c1.897,2.371,3.488,5.161,4.706,8.254l3.696,9.388l2.813,6.363 c1.117,2.525,1.961,5.251,2.522,8.1c0.483,2.459,1.019,5.465,1.268,7.837H9.1z"></path> </g> </g> <g> <g> <path fill="none" stroke="#CCCCCC" stroke-width="0.91" d="M236.6,69.74V46.99"></path> </g> </g> <g> <g> <path fill="none" stroke="#CCCCCC" stroke-width="0.91" d="M15.47,69.74V46.99"></path> </g> </g> <g> <g> <path fill="none" stroke="#CCCCCC" stroke-width="0.91" d="M26.39,69.74V26.06"></path> </g> </g> <g> <g> <path fill="none" stroke="#CCCCCC" stroke-width="0.91" d="M37.31,70.65V14.23"></path> </g> </g> <g> <g> <path fill="none" stroke="#CCCCCC" stroke-width="0.91" d="M49.14,68.83V6.04"></path> </g> </g> <g> <g> <path fill="none" stroke="#CCCCCC" stroke-width="0.91" d="M60.06,69.74V2.4"></path> </g> </g> <g> <g> <path fill="none" stroke="#CCCCCC" stroke-width="0.91" d="M70.98,69.74V2.4"></path> </g> </g> <g> <g> <path fill="none" stroke="#CCCCCC" stroke-width="0.91" d="M81.9,69.74V2.4"></path> </g> </g> <g> <g> <path fill="none" stroke="#CCCCCC" stroke-width="0.91" d="M92.82,69.74V2.4"></path> </g> </g> <g> <g> <path fill="none" stroke="#CCCCCC" stroke-width="0.91" d="M103.74,69.74V2.4"></path> </g> </g> <g> <g> <path fill="none" stroke="#CCCCCC" stroke-width="0.91" d="M114.66,69.74V2.4"></path> </g> </g> <g> <g> <path fill="none" stroke="#CCCCCC" stroke-width="0.91" d="M126.49,2.4v67.34"></path> </g> </g> <g> <g> <path fill="none" stroke="#CCCCCC" stroke-width="0.91" d="M137.41,69.74V2.4"></path> </g> </g> <g> <g> <path fill="none" stroke="#CCCCCC" stroke-width="0.91" d="M148.33,69.74V2.4"></path> </g> </g> <g> <g> <path fill="none" stroke="#CCCCCC" stroke-width="0.91" d="M159.25,69.74V2.4"></path> </g> </g> <g> <g> <path fill="none" stroke="#CCCCCC" stroke-width="0.91" d="M170.17,69.74V2.4"></path> </g> </g> <g> <g> <path fill="none" stroke="#CCCCCC" stroke-width="0.91" d="M181.09,69.74V2.4"></path> </g> </g> <g> <g> <path fill="none" stroke="#CCCCCC" stroke-width="0.91" d="M192.01,69.74V2.4"></path> </g> </g> <g> <g> <path fill="none" stroke="#CCCCCC" stroke-width="0.91" d="M203.84,68.83V6.04"></path> </g> </g> <g> <g> <path fill="none" stroke="#CCCCCC" stroke-width="0.91" d="M214.76,70.65V14.23"></path> </g> </g> <g> <g> <path fill="none" stroke="#CCCCCC" stroke-width="0.91" d="M225.68,69.74V26.06"></path> </g> </g> <g> <g> <path fill="none" stroke="#617283" stroke-width="2.8" d="M9.1,69.74c0.249-2.372,0.784-5.379,1.268-7.837 c0.56-2.849,1.405-5.575,2.521-8.1l2.814-6.363l3.696-9.388c1.219-3.093,2.809-5.883,4.706-8.254l2.67-3.338l2.211-3.554 c2.19-3.519,4.924-6.333,8.005-8.239l0.857-0.531l1.625-1.722c2.578-2.729,5.553-4.676,8.726-5.709L48.92,6.47l1.546-0.922 c2.637-1.571,5.466-2.451,8.34-2.592l1.186-0.058l0.084-0.032c3.581-1.371,7.352-1.531,10.988-0.465l0.73-0.214 c3.168-0.928,6.444-0.928,9.612,0l0.73,0.214l0.731-0.214c3.168-0.928,6.444-0.928,9.612,0l0.73,0.214l0.73-0.214 c3.169-0.928,6.444-0.928,9.613,0l0.73,0.214l0.729-0.214c3.169-0.928,6.445-0.928,9.612,0l0.73,0.214l0.73-0.214 c3.168-0.928,6.445-0.928,9.612,0l0.731,0.214l0.064-0.022l0.794-0.192c3.169-0.928,6.444-0.928,9.613,0l0.73,0.214l0.73-0.214 c3.167-0.928,6.444-0.928,9.612,0l0.73,0.214l0.729-0.214c3.168-0.928,6.445-0.928,9.613,0l0.73,0.214l0.73-0.214 c3.168-0.928,6.444-0.928,9.612,0l0.73,0.214l0.731-0.214c3.168-0.928,6.444-0.928,9.612,0l0.73,0.214 c3.636-1.066,7.407-0.906,10.988,0.465l0.084,0.032l1.186,0.058c2.875,0.141,5.704,1.021,8.339,2.592l1.547,0.922l0.721,0.235 c3.174,1.033,6.149,2.98,8.726,5.709l1.626,1.722l0.857,0.531c3.081,1.905,5.815,4.719,8.004,8.239l2.211,3.554l2.67,3.338 c1.897,2.371,3.488,5.161,4.706,8.254l3.696,9.388l2.813,6.363c1.117,2.525,1.961,5.251,2.522,8.1 c0.483,2.459,1.019,5.465,1.268,7.837H9.1z"></path> </g> </g> </g> </svg> 