<?xml version="1.0" encoding="UTF-8"?> <!-- Generator: Adobe Illustrator 17.0.0, SVG Export Plug-In . SVG Version: 6.00 Build 0) --> <svg xmlns="http://www.w3.org/2000/svg" xmlns:xlink="http://www.w3.org/1999/xlink" id="Layer_1" x="0px" y="0px" width="62px" height="62px" viewBox="-2 -2.5 62 62" xml:space="preserve"> <title>icon-warranty</title> <desc>Created with Sketch.</desc> <g id="TILEA---Nafukovacie-haly"> <g id="TILEA-AIRDOMES-NAHLAD3" transform="translate(-545.000000, -5692.000000)"> <g id="icon-warranty" transform="translate(543.000000, 5690.000000)"> <rect id="Rectangle" y="-0.5" fill="none" width="62" height="62"></rect> <path id="Star" fill="#FFFFFF" stroke="#38465F" stroke-width="3" d="M26.774,55.573L26.774,55.573L26.774,55.573 c-1.478,1.298-3.728,1.152-5.026-0.325c-0.348-0.396-0.603-0.864-0.748-1.37l0,0l0,0c-0.886-3.093-3.929-5.049-7.11-4.569l0,0 l0,0c-1.945,0.293-3.759-1.046-4.052-2.991c-0.078-0.521-0.04-1.053,0.111-1.557l0,0l0,0c0.927-3.081-0.575-6.371-3.511-7.688 l0,0l0,0c-1.795-0.805-2.597-2.912-1.792-4.707c0.216-0.481,0.535-0.907,0.936-1.25l0,0l0,0c2.446-2.09,2.961-5.671,1.203-8.366 l0,0l0,0c-1.075-1.647-0.61-3.854,1.037-4.929c0.441-0.288,0.941-0.474,1.463-0.546l0,0l0,0c3.188-0.436,5.557-3.17,5.535-6.388 l0,0l0,0c-0.013-1.967,1.57-3.572,3.537-3.585c0.527-0.004,1.048,0.11,1.525,0.332l0,0l0,0c2.918,1.356,6.388,0.337,8.11-2.381 l0,0l0,0c1.052-1.662,3.252-2.156,4.914-1.104c0.445,0.282,0.822,0.659,1.104,1.104l0,0l0,0c1.721,2.718,5.192,3.738,8.11,2.381 l0,0l0,0c1.784-0.829,3.902-0.055,4.731,1.728c0.222,0.478,0.335,0.999,0.332,1.525l0,0l0,0 c-0.022,3.217,2.347,5.951,5.535,6.388l0,0l0,0c1.949,0.267,3.312,2.063,3.045,4.011c-0.071,0.522-0.258,1.021-0.546,1.463l0,0 l0,0c-1.758,2.695-1.243,6.275,1.203,8.366l0,0l0,0c1.495,1.278,1.671,3.526,0.393,5.021c-0.342,0.4-0.769,0.72-1.25,0.936l0,0 l0,0c-2.936,1.317-4.438,4.607-3.511,7.688l0,0l0,0c0.567,1.883-0.5,3.87-2.384,4.437c-0.504,0.152-1.036,0.19-1.557,0.111l0,0 l0,0c-3.181-0.479-6.225,1.476-7.11,4.569l0,0l0,0c-0.541,1.891-2.513,2.985-4.404,2.444c-0.506-0.145-0.974-0.401-1.37-0.748 l0,0l0,0C32.809,53.449,29.191,53.449,26.774,55.573z"></path> <circle id="Oval" fill="none" stroke="#38465F" stroke-width="3" cx="31" cy="30.5" r="16.364"></circle> <polyline id="Path-2" fill="none" stroke="#C8D2DB" stroke-width="5" stroke-linecap="round" stroke-linejoin="round" points=" 24.636,30.812 28.888,35.045 37.364,26.864 "></polyline> </g> </g> </g> </svg> 