<?xml version="1.0" encoding="UTF-8"?> <svg xmlns="http://www.w3.org/2000/svg" height="71" viewBox="0 0 145 71" width="145"><g fill="none" fill-rule="evenodd" transform="translate(1 1)"><path d="m4.18778541 26.6723865 54.08236469-19.41713349c.4581739-.16449768.9606148-.15623965 1.4131354.02322603l79.0423635 31.34750856c1.02677.4072078 1.529024 1.569676 1.121816 2.5964455-.191176.4820493-.562114.8709973-1.034565 1.0847969l-59.5189818 26.9343051c-1.4303175.6472659-3.0815959.5851477-4.4592417-.1677488l-70.93020149-38.7640309c-.96926649-.5297133-1.3255947-1.7448766-.79588133-2.7141431.23467304-.4294034.61863066-.757871 1.07919173-.9232258z" fill="#d6d6d6"></path><g stroke="#000" stroke-linecap="round" stroke-linejoin="round" stroke-width="1.4"><path d="m0 21.1759226 58.981104-21.1759226 84.126385 33.3637867-66.0850148 29.9056519z" fill="#fff"></path><path d="m12.7051156 17.0698133 9.8667587 5.3643609 38.3872715-14.16624196-10.9970146-4.88764336"></path><path d="m132.415789 38.2946961-15.931688-6.9040298-41.6272093 18.1494104 15.4539516 7.6493841"></path><path d="m35.3015935 40.3378026 62.6129073-24.649826"></path><ellipse cx="69.203884" cy="27.130435" rx="15.378641" ry="6.26087"></ellipse><path d="m34.7536044 17.9777799c.8536663.0715651 1.7381731.1091766 2.6444539.1091766 7.1421678 0 12.9320388-2.3359056 12.9320388-5.2173913 0-.2105504-.0309135-.4181878-.0910092-.6222138"></path><path d="m104.650234 36.4749257c-1.356441-.1948968-2.817282-.3010127-4.339554-.3010127-7.1421682 0-12.9320392 2.3359057-12.9320392 5.2173913 0 .7590577.4017774 1.4802559 1.1242137 2.1308675"></path></g></g></svg> 