<?xml version="1.0" encoding="UTF-8"?> <!-- Generator: Adobe Illustrator 17.0.0, SVG Export Plug-In . SVG Version: 6.00 Build 0) --> <svg xmlns="http://www.w3.org/2000/svg" xmlns:xlink="http://www.w3.org/1999/xlink" id="Layer_1" x="0px" y="0px" width="62px" height="62px" viewBox="-7 -6 62 62" xml:space="preserve"> <title>icon-fuel</title> <desc>Created with Sketch.</desc> <g id="TILEA---Nafukovacie-haly"> <g id="TILEA-AIRDOMES-NAHLAD3" transform="translate(-979.000000, -5973.000000)"> <g id="icon-fuel" transform="translate(972.000000, 5968.000000)"> <rect id="Rectangle-Copy-2" y="-1" fill="none" width="62" height="62"></rect> <path id="Oval-2-Copy" fill="#C8D2DB" d="M41,54c7.732,0,14-6.268,14-14s-7.614-19-14-26c-6.398,7-14,18.268-14,26 S33.268,54,41,54z"></path> <path id="Oval-2" fill="#FFFFFF" stroke="#314663" stroke-width="3" d="M23,47c7.732,0,14-6.268,14-14S29.386,14,23,7 C16.602,14,9,25.268,9,33S15.268,47,23,47z"></path> <polyline id="Path-2-Copy" fill="none" stroke="#314663" stroke-width="3" stroke-linecap="round" stroke-linejoin="round" points=" 17,31.401 21.536,35.802 28.837,27 "></polyline> </g> </g> </g> </svg> 