<?xml version="1.0" encoding="UTF-8"?> <!-- Generator: Adobe Illustrator 17.0.0, SVG Export Plug-In . SVG Version: 6.00 Build 0) --> <svg xmlns="http://www.w3.org/2000/svg" xmlns:xlink="http://www.w3.org/1999/xlink" id="Layer_1" x="0px" y="0px" width="62px" height="62px" viewBox="-1.5 0 62 62" xml:space="preserve"> <title>icon-led</title> <desc>Created with Sketch.</desc> <g id="TILEA---Nafukovacie-haly"> <g id="TILEA-AIRDOMES-NAHLAD3" transform="translate(-119.000000, -5948.000000)"> <g id="icon-led" transform="translate(117.000000, 5948.000000)"> <rect id="Rectangle-7-Copy" x="0.5" fill="none" width="62" height="62"></rect> <circle id="Oval-4" fill="#C6D2DC" cx="31.5" cy="32" r="18"></circle> <path id="Rectangle-6" fill="#FFFFFF" stroke="#314663" stroke-width="3" d="M7.5,23h49c0.552,0,1,0.448,1,1v14 c0,0.552-0.448,1-1,1h-49c-0.552,0-1-0.448-1-1V24C6.5,23.448,6.948,23,7.5,23z"></path> <path id="Line-3" fill="none" stroke="#2C4666" stroke-width="3" stroke-linecap="round" stroke-linejoin="round" d="M4,27.5h2"></path> <path id="Line-3-Copy-3" fill="none" stroke="#2C4666" stroke-width="3" stroke-linecap="round" stroke-linejoin="round" d=" M9,11.438l4,6.125"></path> <path id="Line-3-Copy-4" fill="none" stroke="#2C4666" stroke-width="3" stroke-linecap="round" stroke-linejoin="round" d=" M55,11.438l-4,6.125"></path> <path id="Line-3-Copy-5" fill="none" stroke="#2C4666" stroke-width="3" stroke-linecap="round" stroke-linejoin="round" d=" M18,4.433l4,12.133"></path> <path id="Line-3-Copy-6" fill="none" stroke="#2C4666" stroke-width="3" stroke-linecap="round" stroke-linejoin="round" d=" M45,4.433l-4,12.133"></path> <path id="Line-3-Copy-7" fill="none" stroke="#2C4666" stroke-width="3" stroke-linecap="round" stroke-linejoin="round" d=" M31.5,2v13.576V2z"></path> <g id="Group-8" transform="translate(31.500000, 52.000000) rotate(-180.000000) translate(-31.500000, -52.000000) translate(8.000000, 44.000000)"> <path id="Line-3-Copy-8" fill="none" stroke="#2C4666" stroke-width="3" stroke-linecap="round" stroke-linejoin="round" d=" M0,9.438l4,6.125"></path> <path id="Line-3-Copy-9" fill="none" stroke="#2C4666" stroke-width="3" stroke-linecap="round" stroke-linejoin="round" d=" M46,9.438l-4,6.125"></path> <path id="Line-3-Copy-10" fill="none" stroke="#2C4666" stroke-width="3" stroke-linecap="round" stroke-linejoin="round" d=" M9,2.433l4,12.133"></path> <path id="Line-3-Copy-11" fill="none" stroke="#2C4666" stroke-width="3" stroke-linecap="round" stroke-linejoin="round" d=" M36,2.433l-4,12.133"></path> <path id="Line-3-Copy-12" fill="none" stroke="#2C4666" stroke-width="3" stroke-linecap="round" stroke-linejoin="round" d=" M22.5,0v13.576V0z"></path> </g> <path id="Line-3-Copy" fill="none" stroke="#2C4666" stroke-width="3" stroke-linecap="round" stroke-linejoin="round" d=" M58,27.5h2"></path> <path id="Line-3_1_" fill="none" stroke="#2C4666" stroke-width="3" stroke-linecap="round" stroke-linejoin="round" d="M4,33.5 h2"></path> <path id="Line-3-Copy-2" fill="none" stroke="#2C4666" stroke-width="3" stroke-linecap="round" stroke-linejoin="round" d=" M58,33.5h2"></path> </g> </g> </g> </svg> 