<?xml version="1.0" encoding="UTF-8"?> <svg xmlns="http://www.w3.org/2000/svg" height="91" viewBox="0 0 146 91" width="146"><g fill="none" fill-rule="evenodd" transform="translate(1 1)"><path d="m77.153 89.9236408c-7.192-2.055-10.343-7.86-10.343-7.86s-11.272-1.345-12.928-8.067c0 0-12.824-.931-14.789-8.894 0 0-12.204-.827-14.272-8.584 0 0-12.101-.104-13.031-7.24 0 0-11.169-1.965-11.79-7.033 0 0 5.244-20.251 19.451-27.081 16.396-7.88199998 37.948-12.52899998 45.498-6.21999998 0 0 8.894-1.862 14.169 4.34299998 0 0 10.963-3.206 17.064 5.275 0 0 10.963-1.759 16.652 5.688 0 0 8.791-1.935 16.499 4.979 9.007 8.079 14.631 31.529 14.631 31.529s-3.724 6.516-13.032 5.378c0 0-3.723 8.274-15.41 6.826 0 0-6.205 8.377-14.685 6.309 0 0-4.965 6.929-11.17 5.585 0 0-6.001 3.881-12.514 5.067z" fill="#d6d6d6"></path><g stroke="#000" stroke-width="1.4"><path d="m77.153 83.9236408c-7.192-2.055-10.343-7.86-10.343-7.86s-11.272-1.345-12.928-8.067c0 0-12.824-.931-14.789-8.894 0 0-12.204-.827-14.272-8.584 0 0-12.101-.104-13.031-7.24 0 0-11.169-1.965-11.79-7.033 0 0 5.244-20.251 19.451-27.08099998 16.396-7.882 37.948-12.529 45.498-6.22 0 0 8.894-1.862 14.169 4.343 0 0 10.963-3.206 17.064 5.27499998 0 0 10.963-1.759 16.652 5.688 0 0 8.791-1.935 16.499 4.979 9.007 8.079 14.631 31.529 14.631 31.529s-3.724 6.516-13.032 5.378c0 0-3.723 8.274-15.41 6.826 0 0-6.205 8.377-14.685 6.309 0 0-4.965 6.929-11.17 5.585 0 0-6.001 3.881-12.514 5.067z" fill="#fff"></path><path d="m11.2978 42.7787s5.749-13.48 9.259-18.745c3.51-5.264 9.435-9.813 16.734-13.089 5.921-2.658 27.166-8.5 27.166-8.5"></path><path d="m23.9618 50.2114s6.516-13.669 10.025-18.935c3.51-5.264 8.584-10.391 15.641-14.159 8.719-4.655 28.998-10.329 28.998-10.329"></path><path d="m38.6015 58.6025s6.548-16.568 10.058-21.833c3.509-5.265 8.685-10.207 15.641-14.159 10.172-5.78 31.39-10.548 31.39-10.548"></path><path d="m53.3905 67.497s4.693-18.674 9.02-25.084c3.54-5.246 8.685-10.208 15.641-14.16 10.172-5.78 34.29-10.502 34.29-10.502"></path><path d="m100.3446 72.7714s-2.453-35.505-21.897-44.344c-.187-.084-.402.052-.407.257l-1.38 54.739"></path><path d="m115.0302 66.4628s-4.271-37.559-21.372-44.156"></path><path d="m130.4403 59.6367s-2.321-34.925-19.423-41.522"></path><path d="m89.1747 78.3564s-1.522-18.604-11.719-26.473"></path><path d="m65.997 75.5185c.873-5.516 3.616-17.665 11.353-23.635"></path></g></g></svg> 