<?xml version="1.0" encoding="UTF-8"?> <!-- Generator: Adobe Illustrator 17.0.0, SVG Export Plug-In . SVG Version: 6.00 Build 0) --> <svg xmlns="http://www.w3.org/2000/svg" xmlns:xlink="http://www.w3.org/1999/xlink" id="Layer_1" x="0px" y="0px" width="62px" height="62px" viewBox="-2 -5.5 62 62" xml:space="preserve"> <title>icon-maintenance</title> <desc>Created with Sketch.</desc> <g id="TILEA---Nafukovacie-haly"> <g id="TILEA-AIRDOMES-NAHLAD3" transform="translate(-120.000000, -5676.000000)"> <g id="icon-maintenance" transform="translate(117.000000, 5669.000000)"> <rect id="Rectangle-7" x="1" y="1.5" fill="none" width="62" height="62"></rect> <path id="Combined-Shape-Copy-4" fill="#C6D2DC" d="M59.531,32.072l-2.202,5.189c-0.079,0.187-0.218,0.34-0.415,0.458 s-0.396,0.154-0.596,0.105l-4.602-1.181c-0.653,0.716-1.258,1.296-1.814,1.74c0.215,1.011,0.592,2.44,1.132,4.287 c0.076,0.253,0.072,0.481-0.014,0.684s-0.232,0.352-0.439,0.448c-0.665,0.398-1.794,0.912-3.385,1.542 c-1.591,0.63-2.559,0.872-2.901,0.727c-0.187-0.079-0.36-0.235-0.518-0.468l-2.154-3.893c-0.838,0.067-1.672,0.062-2.504-0.015 c-1.149,2.013-1.99,3.366-2.523,4.06c-0.294,0.39-0.667,0.489-1.119,0.297l-5.189-2.202c-0.218-0.093-0.381-0.24-0.488-0.442 c-0.107-0.202-0.126-0.407-0.055-0.617l1.171-4.578c-0.658-0.573-1.236-1.159-1.736-1.758l-4.357,1.102 c-0.215,0.074-0.44,0.062-0.674-0.038c-0.218-0.093-0.377-0.261-0.475-0.505c-1.209-2.61-1.939-4.464-2.19-5.563 c-0.043-0.202-0.021-0.404,0.065-0.607c0.079-0.187,0.218-0.34,0.415-0.458c0.373-0.228,0.99-0.577,1.852-1.048 c0.862-0.471,1.516-0.842,1.962-1.112c-0.09-0.958-0.082-1.865,0.024-2.721l-4.009-2.447c-0.189-0.117-0.312-0.284-0.367-0.5 c-0.055-0.217-0.04-0.426,0.046-0.629l2.202-5.189c0.079-0.187,0.218-0.34,0.415-0.458c0.197-0.118,0.388-0.157,0.573-0.115 l4.625,1.191c0.522-0.624,1.13-1.212,1.824-1.763c-0.246-1.153-0.624-2.582-1.132-4.287c-0.076-0.253-0.075-0.473,0.004-0.66 c0.066-0.156,0.212-0.305,0.439-0.448c0.643-0.389,1.766-0.901,3.369-1.535s2.575-0.879,2.918-0.734 c0.203,0.086,0.372,0.25,0.508,0.492l2.164,3.87c0.838-0.067,1.672-0.062,2.504,0.015c1.149-2.013,1.99-3.366,2.523-4.06 c0.294-0.39,0.667-0.489,1.119-0.297l5.189,2.202c0.218,0.093,0.381,0.24,0.488,0.442s0.126,0.407,0.055,0.617l-1.171,4.578 c0.658,0.573,1.236,1.159,1.736,1.758l4.38-1.092c0.2-0.081,0.417-0.071,0.65,0.028c0.203,0.086,0.364,0.247,0.485,0.482 c1.223,2.707,1.946,4.577,2.17,5.61c0.056,0.171,0.038,0.365-0.055,0.584c-0.079,0.187-0.218,0.34-0.415,0.458 c-0.373,0.228-0.99,0.577-1.852,1.048c-0.862,0.471-1.516,0.842-1.962,1.112c0.074,0.951,0.07,1.85-0.014,2.697l3.999,2.47 c0.189,0.117,0.312,0.284,0.367,0.5C59.633,31.66,59.617,31.869,59.531,32.072z M47.5,29.893c0.825-1.943,0.841-3.893,0.05-5.851 c-0.791-1.958-2.158-3.349-4.101-4.174c-1.943-0.825-3.893-0.841-5.851-0.05c-1.958,0.791-3.349,2.158-4.174,4.101 s-0.841,3.893-0.05,5.851c0.791,1.958,2.158,3.349,4.101,4.174c1.943,0.825,3.893,0.841,5.851,0.05 C45.284,33.203,46.675,31.836,47.5,29.893z"></path> <path id="Combined-Shape" fill="#FFFFFF" stroke="#38465F" stroke-width="3.6" d="M5.628,26.152l7.7,3.788 c2.614-1.891,4.27-3.491,4.969-4.799s0.958-3.293,0.778-5.955l-8.073-4.966l0,0c-0.339-0.208-0.444-0.652-0.236-0.991 c0.072-0.116,0.175-0.21,0.297-0.27c5.181-2.531,9.436-2.479,12.764,0.158c5.356,4.243,4.957,7.394,5.155,11.32 s-1.009,3.37,3.072,7.596c2.658,2.752,8.06,8.274,16.207,16.565l0,0c0.337,0.343,0.382,0.878,0.107,1.273l-1.052,1.508l0,0 c-1.009,1.446-2.283,2.688-3.755,3.658l-2.027,1.337l0,0c-0.408,0.269-0.95,0.204-1.282-0.153 c-7.838-8.413-12.713-13.556-14.624-15.428c-2.937-2.876-3.295-3.947-7.728-3.161s-7.48-0.901-10.33-4.258 c-1.7-2.002-2.692-4.165-2.977-6.489h0c-0.048-0.395,0.232-0.754,0.627-0.802C5.361,26.066,5.502,26.09,5.628,26.152z"></path> </g> </g> </g> </svg> 