<svg width="222" height="44" viewBox="0 0 222 44" fill="none" xmlns="http://www.w3.org/2000/svg">
<path d="M27.4345 13.2362V15.2702H3.48459V22.8447H28.085V24.8769H0.112305V4.01904H28.1673V6.05131H3.48459V13.2362H27.4345Z" fill="#54FF65"/>
<path d="M74.8033 17.9145C74.8033 19.2693 74.6189 20.4066 74.255 21.3262C73.8886 22.2458 73.253 22.9829 72.3458 23.541C71.4385 24.0973 70.2073 24.4974 68.6495 24.7378C67.0917 24.9783 52.0124 25.0994 49.6296 25.0994C47.2468 25.0994 45.4049 24.9642 43.8596 24.6957C42.3168 24.4255 41.0706 23.906 40.1209 23.1356C39.1738 22.3651 38.4959 21.2876 38.0896 19.9046C37.6833 18.5217 37.4814 16.7246 37.4814 14.5151C37.4814 12.3056 37.6858 10.5331 38.0896 9.13961C38.4959 7.74791 39.1663 6.6528 40.101 5.85429C41.0357 5.05577 42.2819 4.51348 43.8397 4.22567C45.395 3.93785 47.3266 3.79395 49.6271 3.79395C52.0647 3.79395 67.1316 3.92908 68.6071 4.19759C70.0826 4.4661 71.2341 4.88028 72.0592 5.4366C72.8842 5.99293 73.4549 6.7037 73.7665 7.56715C74.078 8.4306 74.2874 9.44673 74.3971 10.6155H71.107C70.9724 9.70646 70.788 8.9448 70.5587 8.33232C70.3294 7.71983 69.9281 7.22668 69.3598 6.85638C68.7916 6.48608 67.984 6.21932 66.9422 6.06313C65.9003 5.90518 51.3868 5.82621 49.6271 5.82621C47.8675 5.82621 46.4642 5.94204 45.3401 6.17369C44.216 6.40535 43.3237 6.84234 42.6583 7.48291C41.9953 8.12348 41.5267 9.00623 41.2575 10.1294C40.9858 11.2526 40.8512 12.7145 40.8512 14.5151C40.8512 16.3157 40.9808 17.7741 41.2376 18.8868C41.4943 20.0012 41.9554 20.8681 42.6184 21.4911C43.2814 22.1124 44.1811 22.5318 45.3202 22.7442C46.4567 22.9583 47.8924 23.0636 49.6271 23.0636C51.3619 23.0636 65.9876 22.9899 67.1241 22.8407C68.2607 22.6933 69.1555 22.423 69.806 22.0334C70.4565 21.6438 70.9027 21.1191 71.1469 20.461C71.3912 19.8011 71.5133 18.9517 71.5133 17.9127H74.8033V17.9145Z" fill="#54FF65"/>
<path d="M87.4897 14.4613C87.4897 16.2987 87.5919 17.7799 87.7938 18.9031C87.9957 20.0263 88.4319 20.9003 89.0948 21.5215C89.7578 22.1428 90.7075 22.557 91.9387 22.7605C93.4965 23.0168 99.613 23.1256 104.815 23.1115V25.0947C98.93 25.135 92.4322 24.9946 90.5779 24.6823C88.9254 24.405 87.6243 23.875 86.6772 23.0957C85.73 22.3165 85.0646 21.2355 84.6857 19.8526C84.3069 18.4696 84.1174 16.6725 84.1174 14.463C84.1174 12.2535 84.3069 10.4301 84.6857 9.04716C85.0646 7.66424 85.735 6.58317 86.6971 5.80396C87.6243 5.05283 88.873 4.53336 90.4408 4.2473V6.51122C89.8725 6.72883 89.4039 7.01139 89.0325 7.36238C88.382 7.97487 87.9633 8.84709 87.7739 9.98081C87.5844 11.1128 87.4897 12.6063 87.4897 14.463V14.4613ZM108.454 23.0747C110.086 23.0466 111.405 23.001 112.128 22.9413C113.13 22.8588 113.977 22.6991 114.667 22.4675C115.358 22.2358 115.914 21.9199 116.335 21.5198C116.754 21.1214 117.08 20.6002 117.309 19.9596C117.539 19.3208 117.696 18.5486 117.775 17.6483C117.855 16.748 117.898 15.6845 117.898 14.4595C117.898 13.9541 117.89 13.4732 117.878 13.0222H121.242C121.26 13.4802 121.27 13.9593 121.27 14.4595C121.27 16.669 121.088 18.4661 120.722 19.849C120.358 21.232 119.7 22.313 118.752 23.0922C117.805 23.8715 116.504 24.4015 114.852 24.6787C113.805 24.8542 111.39 24.9753 108.456 25.0403V23.0729L108.454 23.0747ZM117.683 10.4582C117.661 10.2914 117.636 10.1317 117.611 9.97729C117.422 8.84534 117 7.97136 116.352 7.35887C115.702 6.74638 114.762 6.33747 113.528 6.1339C111.365 5.77588 99.3737 5.73551 94.0822 5.96717V3.94719C100.373 3.68044 112.18 3.7559 114.867 4.21219C116.504 4.48948 117.798 5.01948 118.747 5.80045C119.695 6.57966 120.353 7.66073 120.717 9.04365C120.831 9.47362 120.926 9.94571 121.003 10.4582H117.681H117.683Z" fill="#54FF65"/>
<path d="M133.954 22.8447H156.456V24.8769H130.582V4.01904H133.954V22.8447Z" fill="white"/>
<path d="M169.317 24.8769H165.945V4.01904H169.317V24.8769Z" fill="white"/>
<path d="M196.502 24.8769H193.13V6.05131H178.925V4.01904H210.978V6.05131H196.502V24.8769Z" fill="white"/>
<path d="M218.316 0C218.804 0 219.283 0.0877506 219.751 0.265003C220.217 0.442256 220.581 0.694973 220.841 1.02491C221.1 1.35484 221.232 1.69882 221.232 2.05508C221.232 2.41134 221.105 2.75005 220.846 3.07648C220.589 3.4029 220.23 3.65737 219.766 3.83814C219.303 4.0189 218.819 4.11016 218.313 4.11016C217.807 4.11016 217.324 4.02065 216.86 3.83814C216.397 3.65737 216.038 3.40466 215.778 3.07648C215.522 2.75005 215.392 2.40958 215.392 2.05508C215.392 1.70057 215.522 1.35484 215.783 1.02491C216.045 0.696728 216.412 0.442256 216.875 0.265003C217.344 0.0877506 217.82 0 218.311 0H218.316ZM218.316 0.340466C217.904 0.340466 217.506 0.414176 217.117 0.563349C216.728 0.710767 216.424 0.923118 216.207 1.19865C215.988 1.47418 215.878 1.76024 215.878 2.05683C215.878 2.35342 215.985 2.63598 216.202 2.908C216.416 3.18002 216.718 3.39062 217.104 3.5433C217.491 3.69423 217.895 3.77145 218.316 3.77145C218.737 3.77145 219.138 3.69598 219.527 3.5433C219.913 3.39237 220.215 3.18002 220.429 2.908C220.644 2.63598 220.751 2.35342 220.751 2.05683C220.751 1.76024 220.641 1.47243 220.424 1.19865C220.207 0.923118 219.903 0.710767 219.515 0.563349C219.126 0.415931 218.727 0.340466 218.321 0.340466H218.316ZM217.035 3.19055V0.982788H218.114C218.483 0.982788 218.749 1.00385 218.914 1.04421C219.081 1.08458 219.211 1.15653 219.31 1.25832C219.407 1.36011 219.457 1.46716 219.457 1.58124C219.457 1.74269 219.375 1.88309 219.211 2.00243C219.046 2.12177 218.829 2.18846 218.558 2.20425C218.67 2.2376 218.759 2.27621 218.824 2.32184C218.951 2.40783 219.106 2.55349 219.288 2.75882L219.672 3.19055H219.056L218.777 2.84307C218.558 2.56929 218.381 2.3973 218.246 2.32886C218.154 2.27796 218.019 2.25339 217.84 2.25515H217.541V3.1923H217.035V3.19055ZM217.541 1.94627H218.156C218.45 1.94627 218.652 1.91644 218.757 1.85501C218.864 1.79359 218.919 1.7111 218.919 1.61107C218.919 1.54614 218.891 1.48822 218.842 1.43557C218.789 1.38292 218.72 1.34607 218.627 1.31974C218.535 1.29517 218.366 1.28113 218.119 1.28113H217.543V1.94452L217.541 1.94627Z" fill="white"/>
<path d="M6.3484 43.2131V42.5023H1.03451V40.5578H5.98202V39.8716H1.03451V38.157H6.10913V37.4462H0.112305V43.2131H6.3484ZM14.0127 41.4563C13.4245 42.4444 12.2356 42.6409 11.3408 42.6409C9.59856 42.6409 8.24516 41.8986 8.24516 40.2805C8.24516 38.5571 9.79297 37.9938 11.2286 37.9938C12.2779 37.9938 13.3572 38.2956 13.8631 39.138L14.8476 38.9502C14.1024 37.741 12.739 37.276 11.1912 37.276C8.73118 37.276 7.26812 38.4939 7.26812 40.2893C7.26812 42.3479 9.00037 43.3605 11.2112 43.3605C12.5745 43.3605 14.222 43.0411 14.9872 41.6371L14.0102 41.4581L14.0127 41.4563ZM23.803 40.4104C23.803 38.2377 21.7393 37.3058 19.8226 37.3058C17.7688 37.3058 15.8995 38.3184 15.8995 40.3928C15.8995 42.2724 17.4647 43.3657 19.8799 43.3657C22.4396 43.3657 23.803 42.0267 23.803 40.4086V40.4104ZM22.8733 40.3279C22.8733 41.4721 22.1281 42.655 19.8973 42.655C17.9807 42.655 16.8217 41.7898 16.8217 40.3595C16.8217 38.7256 18.2498 38.0078 19.8251 38.0078C22.1106 38.0078 22.8733 39.2819 22.8733 40.3279ZM30.5002 43.2113V42.5093H26.1808V37.4445H25.2586V43.2113H30.5002ZM32.3322 43.2113V37.4445H31.3925V43.2113H32.3322ZM39.4805 38.1306V37.4445H33.2444V38.1306H35.8964V43.2113H36.8186V38.1306H39.4805ZM43.4884 43.2113H47.6607C48.5356 43.2113 49.5948 43.2025 50.1482 42.4602C50.4149 42.1004 50.4248 41.7582 50.4248 41.602C50.4248 40.7526 49.8366 40.3033 49.1911 40.1243C49.2833 40.0752 50.1033 39.9119 50.1033 38.9397C50.1033 37.6077 48.6751 37.4445 47.7629 37.4445H43.4884V43.2113ZM44.418 39.8786V38.1061H47.6507C48.0097 38.1061 48.3885 38.1061 48.71 38.2851C49.1063 38.5062 49.1437 38.8484 49.1437 38.9958C49.1437 39.2573 49.0341 39.4363 48.9692 39.5188C48.6926 39.8698 48.2415 39.8786 47.8177 39.8786H44.418ZM44.418 42.5409V40.5402H47.9374C48.4359 40.5402 48.9593 40.5648 49.2733 40.9649C49.4578 41.2019 49.4578 41.423 49.4578 41.5441C49.4578 41.8301 49.3381 42.0337 49.2459 42.132C48.9244 42.4988 48.4159 42.5409 47.9374 42.5409H44.418ZM52.1197 37.4445V40.8333C52.1197 41.2984 52.1371 41.7231 52.3964 42.1478C53.1142 43.2991 54.9486 43.3482 55.4446 43.3482C56.6335 43.3482 58.0891 43.0955 58.605 41.9916C58.7795 41.6248 58.7895 41.2966 58.7895 40.914V37.4427H57.8598V40.972C57.8598 41.2826 57.8498 41.5353 57.7127 41.8126C57.299 42.6216 55.6689 42.6374 55.4845 42.6374C54.5723 42.6374 54.0389 42.4338 53.7174 42.2531C53.4507 42.0986 53.0544 41.8933 53.0544 40.9632V37.4427H52.1247L52.1197 37.4445ZM61.6982 43.2113V37.4445H60.7585V43.2113H61.6982ZM68.8914 43.2113V42.5093H64.572V37.4445H63.6498V43.2113H68.8914ZM69.7936 43.2113H72.3908C73.4775 43.2113 74.6115 43.1867 75.4939 42.5251C76.2316 41.9776 76.5905 41.1211 76.5905 40.2875C76.5905 39.331 76.1668 38.4413 75.2546 37.9113C74.4445 37.4462 73.7068 37.4462 73.0263 37.4462H69.7936V43.2131V43.2113ZM70.7233 42.5163V38.1219H73.0263C73.3479 38.1219 73.7168 38.1306 74.0308 38.2026C75.1075 38.4553 75.6434 39.3047 75.6509 40.2524C75.6509 40.5297 75.606 41.3791 74.8683 41.96C74.2327 42.4584 73.5049 42.5146 72.7123 42.5146H70.7233V42.5163ZM78.9758 43.2113V37.4445H78.0362V43.2113H78.9758ZM87.7816 43.2113V37.4445H86.8968C86.8968 37.7375 86.9242 42.2057 86.9242 42.2057L81.8671 37.4445H80.9174V43.2113H81.8023C81.8023 42.7866 81.7848 38.4413 81.7848 38.4413L86.8794 43.2113H87.7816ZM96.5974 43.2113V40.1734H92.9585V40.8596H95.8223C95.7774 41.1457 95.74 41.3423 95.5655 41.6037C95.077 42.3145 94.0651 42.6567 93.1603 42.6567C91.6225 42.6567 90.2217 41.8477 90.2217 40.2805C90.2217 38.8098 91.5951 38.0096 93.1877 38.0096C94.4963 38.0096 95.2689 38.5641 95.6578 39.0713L96.56 38.8256C95.9419 37.7481 94.424 37.3058 93.1229 37.3058C90.7277 37.3058 89.2347 38.6378 89.2347 40.3121C89.2347 41.9863 90.643 43.3429 92.9559 43.3429C94.4115 43.3429 95.3412 42.8603 95.7924 42.4198V43.2113H96.5924H96.5974ZM107.494 41.4546C106.906 42.4426 105.717 42.6392 104.822 42.6392C103.08 42.6392 101.727 41.8968 101.727 40.2787C101.727 38.5554 103.275 37.992 104.71 37.992C105.76 37.992 106.839 38.2939 107.345 39.1362L108.329 38.9485C107.584 37.7393 106.221 37.2742 104.673 37.2742C102.213 37.2742 100.75 38.4922 100.75 40.2875C100.75 42.3461 102.482 43.3587 104.693 43.3587C106.056 43.3587 107.706 43.0393 108.469 41.6353L107.492 41.4563L107.494 41.4546ZM117.287 40.4086C117.287 38.2359 115.223 37.304 113.307 37.304C111.253 37.304 109.384 38.3167 109.384 40.3911C109.384 42.2706 110.949 43.364 113.364 43.364C115.924 43.364 117.287 42.0249 117.287 40.4069V40.4086ZM116.358 40.3261C116.358 41.4704 115.612 42.6532 113.382 42.6532C111.465 42.6532 110.306 41.788 110.306 40.3577C110.306 38.7238 111.734 38.006 113.309 38.006C115.595 38.006 116.358 39.2802 116.358 40.3261ZM125.597 43.2096V37.4427H124.712C124.712 37.7358 124.74 42.2039 124.74 42.2039L119.682 37.4427H118.733V43.2096H119.618C119.618 42.7848 119.6 38.4395 119.6 38.4395L124.695 43.2096H125.597ZM132.773 38.1289V37.4427H126.537V38.1289H129.189V43.2096H130.111V38.1289H132.773ZM141.182 43.2096L138.777 40.7666C139.146 40.7175 139.32 40.6683 139.487 40.6122C140.464 40.2524 140.537 39.4434 140.537 39.1345C140.537 38.343 140.038 37.7375 139.163 37.534C138.887 37.469 138.685 37.4445 138.132 37.4445H133.7V43.2113H134.63V40.9H137.77L139.971 43.2113H141.177L141.182 43.2096ZM134.625 40.2208V38.1306H138.199C138.705 38.1306 139.138 38.171 139.415 38.6045C139.572 38.8414 139.582 39.0625 139.582 39.1678C139.582 39.503 139.435 39.6996 139.343 39.7961C138.984 40.205 138.366 40.2208 137.842 40.2208H134.627H134.625ZM148.867 43.2096L145.532 37.4427H144.547L141.175 43.2096H142.217L143.009 41.788H147.007L147.8 43.2096H148.869H148.867ZM146.611 41.1264H143.396L145.018 38.2675L146.611 41.1264ZM155.868 41.4528C155.28 42.4409 154.091 42.6374 153.196 42.6374C151.454 42.6374 150.1 41.8951 150.1 40.277C150.1 38.5536 151.648 37.9902 153.084 37.9902C154.133 37.9902 155.212 38.2921 155.718 39.1345L156.703 38.9467C155.958 37.7375 154.594 37.2725 153.046 37.2725C150.586 37.2725 149.123 38.4904 149.123 40.2858C149.123 42.3443 150.855 43.357 153.066 43.357C154.43 43.357 156.077 43.0376 156.842 41.6336L155.865 41.4546L155.868 41.4528ZM163.108 38.1289V37.4427H156.872V38.1289H159.524V43.2096H160.446V38.1289H163.108ZM164.978 43.2096V37.4427H164.038V43.2096H164.978ZM173.784 43.2096V37.4427H172.899C172.899 37.7358 172.926 42.2039 172.926 42.2039L167.869 37.4427H166.919V43.2096H167.804C167.804 42.7848 167.787 38.4395 167.787 38.4395L172.881 43.2096H173.784ZM182.599 43.2096V40.1717H178.96V40.8579H181.824C181.779 41.1439 181.742 41.3405 181.567 41.602C181.079 42.3128 180.067 42.655 179.162 42.655C177.624 42.655 176.224 41.8459 176.224 40.2787C176.224 38.8081 177.597 38.0078 179.19 38.0078C180.498 38.0078 181.271 38.5624 181.66 39.0696L182.562 38.8239C181.944 37.7463 180.426 37.304 179.125 37.304C176.73 37.304 175.237 38.6361 175.237 40.3103C175.237 41.9846 176.645 43.3412 178.958 43.3412C180.413 43.3412 181.343 42.8586 181.794 42.4181V43.2096H182.597H182.599ZM192.327 43.2096V42.5076H188.008V37.4427H187.086V43.2096H192.327ZM193.903 43.2096V42.3198H192.888V43.2096H193.903ZM200.58 43.2096V42.5076H196.26V37.4427H195.338V43.2096H200.58ZM202.155 43.2096V42.3198H201.141V43.2096H202.155ZM210.004 41.4528C209.416 42.4409 208.227 42.6374 207.332 42.6374C205.59 42.6374 204.236 41.8951 204.236 40.277C204.236 38.5536 205.784 37.9902 207.22 37.9902C208.269 37.9902 209.348 38.2921 209.854 39.1345L210.839 38.9467C210.093 37.7375 208.73 37.2725 207.182 37.2725C204.722 37.2725 203.259 38.4904 203.259 40.2858C203.259 42.3443 204.991 43.357 207.202 43.357C208.566 43.357 210.216 43.0376 210.978 41.6336L210.001 41.4546L210.004 41.4528Z" fill="white"/>
<path d="M0 32.02H210.978" stroke="#444444" stroke-width="1.42" stroke-miterlimit="22.93"/>
</svg>
