<?xml version="1.0" encoding="utf-8"?>
<!-- Generator: Adobe Illustrator 17.0.0, SVG Export Plug-In . SVG Version: 6.00 Build 0)  -->
<!DOCTYPE svg PUBLIC "-//W3C//DTD SVG 1.1//EN" "http://www.w3.org/Graphics/SVG/1.1/DTD/svg11.dtd">
<svg version="1.1" id="Layer_1" xmlns="http://www.w3.org/2000/svg" xmlns:xlink="http://www.w3.org/1999/xlink" x="0px" y="0px"
	 width="137px" height="30px" viewBox="0 0 137 30" enable-background="new 0 0 137 30" xml:space="preserve">
<g>
	<g>
		<g>
			<path d="M18.337,8.053v21.474H8.694V8.053H0.422V0.474H26.61v7.579H18.337z"/>
		</g>
	</g>
	<g>
		<g>
			<path d="M30.878,29.526V0.421h9.643v29.105H30.878L30.878,29.526z"/>
		</g>
	</g>
	<g>
		<g>
			<path d="M68.342,21.526v8H46.58V0.421h9.643v21.105H68.342z"/>
		</g>
	</g>
	<g>
		<g>
			<path d="M81.673,7.737v3.579H93.95v7.316H81.673v3.632h15.386v7.316H72.03V0.474h24.66v7.316H81.673V7.737z"/>
		</g>
	</g>
	<g>
		<g>
			<path d="M110.812,0.421h9.643l12.225,29.105h-9.906l-7.114-16.632l-6.745,16.632H98.64L110.812,0.421z"/>
		</g>
	</g>
	<g>
		<path d="M132.31,0.474c-2.371,0-4.268,2-4.268,4.316s1.844,4.263,4.268,4.263c2.424,0,4.321-2,4.321-4.316
			S134.787,0.474,132.31,0.474z M132.31,8c-1.844,0-3.214-1.421-3.214-3.211s1.423-3.263,3.267-3.263s3.267,1.421,3.267,3.211
			C135.63,6.526,134.207,8,132.31,8z"/>
		<path d="M134.154,4.053c0-0.895-0.632-1.421-1.686-1.421h-1.739v4h1.001V5.526h0.79l0.58,1.105h1.159l-0.843-1.316
			C133.891,5.105,134.154,4.632,134.154,4.053z M132.521,4.684h-0.738V3.421h0.738c0.422,0,0.685,0.211,0.685,0.632
			C133.206,4.421,132.942,4.684,132.521,4.684z"/>
	</g>
</g>
</svg>
